<?xml version="1.0" encoding="utf-8"?>
<!-- Generator: Adobe Illustrator 16.0.0, SVG Export Plug-In . SVG Version: 6.00 Build 0)  -->
<!DOCTYPE svg PUBLIC "-//W3C//DTD SVG 1.1//EN" "http://www.w3.org/Graphics/SVG/1.1/DTD/svg11.dtd">
<svg version="1.1" id="Layer_1" xmlns:sketch="http://www.bohemiancoding.com/sketch/ns"
	 xmlns="http://www.w3.org/2000/svg" xmlns:xlink="http://www.w3.org/1999/xlink" x="0px" y="0px" width="184px" height="200px"
	 viewBox="0 0 184 200" enable-background="new 0 0 184 200" xml:space="preserve">
<title>shield-large</title>
<desc>Created with Sketch.</desc>
<g>
	<polygon fill="#E23237" points="91.081,68.481 91.081,67.965 90.965,68.242 90.831,67.965 75.585,104.485 75.835,104.485 
		90.831,104.485 91.081,104.485 91.25,104.485 91.25,68.828 	"/>
	<polygon fill="#B52E31" points="91.25,68.828 91.25,104.485 108.543,104.485 	"/>
</g>
<g>
	<polygon fill="none" points="39.287,146.138 58.621,145.783 69.014,119.843 90.831,119.843 91.081,119.843 91.25,119.843 
		115.227,119.843 126.605,146.14 144.525,146.14 91.25,31.967 90.958,31.343 	"/>
	<polygon fill="#E23237" points="91.081,119.843 90.831,119.843 69.014,119.843 58.621,145.783 39.287,146.138 90.958,31.343 
		91.25,31.967 91.25,11.435 91.081,11.377 91.081,11.289 90.953,11.334 90.831,11.292 90.831,11.377 8.302,40.708 20.951,149.935 
		90.831,188.572 90.831,188.711 90.956,188.642 91.081,188.711 91.081,188.572 91.25,188.479 91.25,119.843 	"/>
	<polygon fill="#B52E31" points="91.25,11.435 91.25,31.967 144.525,146.14 126.605,146.14 115.227,119.843 91.25,119.843 
		91.25,188.479 161.943,149.411 175.697,40.187 	"/>
</g>
</svg>
