<?xml version="1.0" encoding="utf-8"?>
<!-- Generator: Adobe Illustrator 16.0.0, SVG Export Plug-In . SVG Version: 6.00 Build 0)  -->
<!DOCTYPE svg PUBLIC "-//W3C//DTD SVG 1.1//EN" "http://www.w3.org/Graphics/SVG/1.1/DTD/svg11.dtd">
<svg version="1.1" id="Layer_1" xmlns:sketch="http://www.bohemiancoding.com/sketch/ns"
	 xmlns="http://www.w3.org/2000/svg" xmlns:xlink="http://www.w3.org/1999/xlink" x="0px" y="0px" width="184px" height="200px"
	 viewBox="0 0 184 200" enable-background="new 0 0 184 200" xml:space="preserve">
<title>shield-large</title>
<desc>Created with Sketch.</desc>
<g>
	<polygon fill="#FFFFFF" points="91.081,67.966 90.965,68.243 90.831,67.966 75.585,104.487 75.835,104.487 90.831,104.487 
		91.081,104.487 108.543,104.487 91.081,68.482 	"/>
	<path fill="#FFFFFF" d="M175.697,40.188L91.081,11.378V11.29l-0.128,0.045l-0.122-0.042v0.085L8.302,40.709l12.649,109.226
		l69.88,38.638v0.139l0.125-0.069l0.125,0.069v-0.139l70.863-39.161L175.697,40.188z M126.605,146.14l-11.379-26.296H91.081h-0.25
		H69.014l-10.393,25.94l-19.334,0.355L90.958,31.344l53.567,114.796H126.605z"/>
</g>
</svg>
