<?xml version="1.0" encoding="utf-8"?>
<!-- Generator: Adobe Illustrator 16.0.0, SVG Export Plug-In . SVG Version: 6.00 Build 0)  -->
<!DOCTYPE svg PUBLIC "-//W3C//DTD SVG 1.1//EN" "http://www.w3.org/Graphics/SVG/1.1/DTD/svg11.dtd">
<svg version="1.1" id="Layer_1" xmlns="http://www.w3.org/2000/svg" xmlns:xlink="http://www.w3.org/1999/xlink" x="0px" y="0px"
	 width="800px" height="60px" viewBox="0 0 800 60" enable-background="new 0 0 800 60" xml:space="preserve">
<rect fill="#212A35" width="800" height="60"/>
<g>
	<path fill="#FFFFFF" d="M58.585,30.879c-0.502-0.88-1.444-1.427-2.458-1.427c-0.489,0-0.972,0.129-1.399,0.372
		c-0.016,0.01-0.03,0.02-0.046,0.029c-0.331-0.318-0.676-0.638-1.031-0.958c1.114-0.947,2.122-1.896,2.996-2.832
		c3.112-3.327,4.202-6.063,3.152-7.911c-0.691-1.215-2.179-1.832-4.423-1.832c-2.215,0-5.091,0.619-8.27,1.732
		c-0.312-1.561-0.684-3.017-1.116-4.33c-1.42-4.313-3.288-6.592-5.399-6.592l-0.05,0.004c-1.556,0.027-2.936,1.292-4.065,3.68
		c-0.132-0.019-0.265-0.031-0.398-0.031c-1.037,0-1.989,0.565-2.484,1.474c-0.747,1.369-0.24,3.09,1.128,3.836
		c0.017,0.009,0.036,0.016,0.053,0.025c-0.094,0.429-0.181,0.869-0.263,1.318c-3.167-1.155-6.021-1.796-8.215-1.796
		c-2.123,0-3.549,0.589-4.238,1.751c-1.085,1.828-0.046,4.584,3.003,7.968c0.978,1.085,2.128,2.192,3.414,3.296
		c-1.185,0.997-2.253,1.998-3.174,2.981c-3.112,3.327-4.202,6.062-3.151,7.911c0.691,1.216,2.179,1.831,4.423,1.831
		c0.246,0,0.501-0.009,0.763-0.022c0.402,1.071,1.435,1.835,2.645,1.835c1.559,0,2.827-1.269,2.827-2.826
		c0-0.021-0.003-0.04-0.003-0.06c0.636-0.187,1.288-0.396,1.955-0.628c0.306,1.517,0.67,3.226,1.09,4.502
		c1.42,4.313,3.287,6.941,5.4,6.941H41.3c2.125-0.212,3.925-2.716,5.204-7.088c0.364-1.245,0.672-2.769,0.922-4.238
		c2.935,1.024,5.578,1.516,7.638,1.516c2.123,0,3.549-0.626,4.238-1.788c0.795-1.341,0.444-3.199-0.999-5.419
		C59.032,33.224,59.185,31.93,58.585,30.879z M55.377,17.821c1.145,0,2.615,0.186,3.119,1.073c0.897,1.58-1.338,5.098-5.987,9.007
		c-1.374-1.156-2.896-2.305-4.528-3.419c-0.137-1.716-0.339-3.374-0.601-4.942C50.475,18.437,53.26,17.821,55.377,17.821z
		 M43.822,33.86c-0.887,0.503-1.774,0.98-2.657,1.431c-1.134-0.585-2.28-1.218-3.424-1.896c-0.843-0.5-1.666-1.014-2.464-1.536
		c-0.058-0.95-0.099-1.926-0.116-2.93c-0.02-1.137-0.011-2.243,0.023-3.312c0.935-0.597,1.916-1.19,2.945-1.775
		c1.053-0.599,2.108-1.16,3.155-1.682c0.776,0.419,1.557,0.861,2.336,1.323c1.021,0.605,1.992,1.218,2.917,1.833
		c0.075,1.092,0.125,2.22,0.146,3.385c0.021,1.169,0.009,2.325-0.03,3.458C45.752,32.73,44.809,33.3,43.822,33.86z M46.563,33.981
		c-0.08,1.248-0.195,2.461-0.346,3.621c-1.1-0.436-2.235-0.933-3.391-1.485c0.579-0.307,1.158-0.624,1.737-0.953
		C45.243,34.778,45.909,34.383,46.563,33.981z M39.5,36.109c-1.219,0.576-2.419,1.095-3.585,1.551
		c-0.202-1.233-0.369-2.546-0.495-3.93c0.511,0.322,1.029,0.641,1.556,0.953C37.817,35.183,38.66,35.658,39.5,36.109z M33.661,28.93
		c0.011,0.631,0.032,1.257,0.06,1.878c-1.01-0.704-1.971-1.419-2.876-2.14c0.872-0.678,1.81-1.363,2.815-2.048
		C33.648,27.382,33.647,28.153,33.661,28.93z M35.269,23.794c0.094-1.523,0.24-2.958,0.43-4.297
		c1.282,0.526,2.607,1.134,3.954,1.812c-0.754,0.391-1.51,0.801-2.264,1.229C36.667,22.947,35.96,23.368,35.269,23.794z
		 M42.943,21.362c1.018-0.47,2.021-0.9,3.001-1.285c0.171,1.06,0.318,2.175,0.435,3.347c-0.652-0.417-1.315-0.828-1.994-1.231
		C43.905,21.909,43.424,21.632,42.943,21.362z M48.182,28.651c-0.014-0.76-0.04-1.513-0.078-2.258
		c1.167,0.829,2.241,1.657,3.222,2.472c-0.964,0.758-2.016,1.526-3.148,2.292C48.194,30.33,48.196,29.494,48.182,28.651z
		 M36.243,16.429c0.969-0.059,1.847-0.604,2.316-1.463c0.361-0.663,0.443-1.427,0.23-2.152c-0.165-0.56-0.493-1.043-0.939-1.402
		c0.844-1.774,1.802-2.768,2.742-2.784c1.843,0,3.894,3.81,5.086,9.951c-1.417,0.546-2.883,1.182-4.367,1.898
		c-1.83-0.96-3.639-1.797-5.374-2.493C36.032,17.446,36.134,16.927,36.243,16.429z M26.177,24.356
		c-2.457-2.727-3.514-5.043-2.828-6.199c0.499-0.84,1.878-1.016,2.948-1.016c2.1,0,4.872,0.642,7.964,1.795
		c-0.273,1.835-0.457,3.802-0.547,5.847c-1.445,0.949-2.805,1.925-4.056,2.912C28.339,26.575,27.166,25.453,26.177,24.356z
		 M32.381,38.876c-0.5-0.801-1.387-1.338-2.399-1.338c-1.387,0-2.542,1.005-2.78,2.324c-0.215,0.011-0.425,0.019-0.627,0.019
		c-1.145,0-2.615-0.187-3.119-1.073c-0.911-1.604,1.404-5.201,6.19-9.178c1.29,1.04,2.695,2.07,4.186,3.069
		c0.141,1.913,0.36,3.759,0.654,5.493C33.766,38.447,33.062,38.676,32.381,38.876z M45.064,43.725
		c-1.03,3.521-2.447,5.486-3.791,6.123h-0.022c-1.833,0-3.872-4.19-5.068-10.28c1.611-0.618,3.285-1.558,4.979-2.393
		c1.65,0.825,3.273,1.647,4.832,2.251C45.746,40.94,45.435,42.454,45.064,43.725z M58.011,38.721
		c-0.498,0.839-1.878,1.016-2.948,1.016c-1.974,0-4.542-0.567-7.41-1.592c0.224-1.632,0.38-3.358,0.464-5.147
		c1.563-1.021,3.027-2.076,4.364-3.141c0.409,0.362,0.798,0.722,1.166,1.076c-0.449,0.832-0.476,1.87,0.026,2.748
		c0.503,0.881,1.444,1.427,2.458,1.427c0.324,0,0.644-0.062,0.948-0.171C58.146,36.585,58.488,37.916,58.011,38.721z"/>
	<g>
		<path fill="#FFFFFF" d="M81.341,40.599c-0.034,0-0.034-0.033-0.034-0.068l-0.034-0.034l-9.303-22.141
			c-0.171-0.412,0.035-0.927,0.446-1.099c0.412-0.206,0.927,0,1.099,0.412l8.582,20.46l8.616-20.46
			c0.137-0.412,0.652-0.618,1.064-0.412c0.412,0.172,0.618,0.687,0.446,1.099l-9.303,21.97c-0.034,0.31-0.206,0.584-0.481,0.687
			h-0.034c-0.103,0.034-0.206,0.068-0.309,0.068c-0.103,0-0.24,0-0.309-0.034c-0.034,0-0.034-0.034-0.034-0.034
			C81.547,40.942,81.41,40.805,81.341,40.599z"/>
		<path fill="#FFFFFF" d="M113.505,16.707c6.42,0,11.466,5.458,11.5,12.187c-0.034,6.729-5.08,12.187-11.5,12.187
			c-6.488,0-11.568-5.458-11.603-12.187C101.937,22.166,107.018,16.707,113.505,16.707z M113.505,39.397
			c5.286,0,9.749-4.635,9.784-10.504c-0.035-5.938-4.498-10.47-9.784-10.47c-5.458,0-9.92,4.532-9.92,10.47
			C103.585,34.763,108.047,39.397,113.505,39.397z"/>
		<path fill="#FFFFFF" d="M135.783,17.874c0-0.446,0.376-0.824,0.825-0.824c0.479,0,0.857,0.377,0.857,0.824v13.49
			c0,4.43,3.605,7.999,7.999,8.033c4.462-0.034,8.067-3.604,8.067-8.033v-13.49c0-0.446,0.377-0.824,0.825-0.824
			c0.48,0,0.858,0.377,0.858,0.824v13.49c0,5.356-4.359,9.716-9.75,9.716c-5.319,0-9.68-4.359-9.68-9.716L135.783,17.874
			L135.783,17.874z"/>
		<path fill="#FFFFFF" d="M167.742,39.741l7.725-10.607l-7.725-10.607c-0.31-0.377-0.24-0.927,0.137-1.167
			c0.376-0.309,0.927-0.24,1.167,0.137l7.45,10.229l7.449-10.229c0.31-0.377,0.791-0.446,1.167-0.137
			c0.377,0.24,0.481,0.79,0.173,1.167l-7.759,10.607l7.759,10.607c0.309,0.377,0.206,0.893-0.173,1.167
			c-0.172,0.103-0.309,0.172-0.48,0.172c-0.275,0-0.515-0.138-0.687-0.377l-7.449-10.195l-7.45,10.195
			c-0.137,0.24-0.412,0.377-0.651,0.377c-0.172,0-0.344-0.068-0.516-0.172C167.501,40.634,167.432,40.118,167.742,39.741z"/>
	</g>
</g>
<rect x="777" fill="#121C28" width="23" height="60"/>
<g>
	<path fill="#FFFFFF" d="M792.163,29.337l-4.969,4.969c-0.085,0.085-0.186,0.128-0.302,0.128c-0.115,0-0.217-0.043-0.301-0.128
		l-1.111-1.111c-0.086-0.085-0.128-0.186-0.128-0.302c0-0.115,0.042-0.217,0.128-0.301l3.555-3.556l-3.555-3.556
		c-0.086-0.085-0.128-0.185-0.128-0.301s0.042-0.217,0.128-0.301l1.111-1.112c0.084-0.085,0.186-0.127,0.301-0.127
		c0.116,0,0.217,0.042,0.302,0.127l4.969,4.969c0.085,0.085,0.127,0.186,0.127,0.301C792.29,29.152,792.248,29.252,792.163,29.337z"
		/>
</g>
<text transform="matrix(1 0 0 1 415.4248 23.6382)"><tspan x="0" y="0" fill="#FFFFFF" font-family="'BrandonGrotesque-Regular'" font-size="18">AngularJS and JavaScript training by Todd Motto.</tspan><tspan x="105.208" y="21.6" fill="#FFFFFF" font-family="'BrandonGrotesque-Regular'" font-size="18">Workshops and pair-programming.</tspan></text>
</svg>
